# xmcd
#
# Track frame offsets:
#	150
#	12871
#	27026
#	42195
#	56295
#	72236
#	87040
#	95596
#	113745
#	126809
#
# Disc length: 1896 seconds
#
# Revision: 3
# Processed by: cddbd v1.5.2PL0 Copyright (c) Steve Scherf et al.
# Submitted via: EasyCDDAExtractor 15.3.0.1
#
DISCID=7207660a
DTITLE=The Music Of Nashville - Season 5, Volume 1
DYEAR=2017
DGENRE=Country
TTITLE0=Rhiannon Giddens - God Shall Wipe All Tears Away
TTITLE1=Lennon and Maisy - Your Best
TTITLE2=Clare Bowen and Sam Palladio - All Of Me
TTITLE3=Charles Esten - Simple As That
TTITLE4=Joseph David-Jones - A Few Steps My Way
TTITLE5=Connie Britton and Charles Esten - My Favorite Hurricane
TTITLE6=Chris Carmack - Burn To Dark
TTITLE7=Hayden Panettiere With Jonathan Jackson - On My Way
TTITLE8=Jonathan Jackson - Won't Back Down
TTITLE9=Charles Esten, Lennon and Maisy - Sanctuary
EXTD=
EXTT0=
EXTT1=
EXTT2=
EXTT3=
EXTT4=
EXTT5=
EXTT6=
EXTT7=
EXTT8=
EXTT9=
PLAYORDER=
